<?xml version="1.0" encoding="utf-8"?>
<!-- Generator: Adobe Illustrator 18.0.0, SVG Export Plug-In . SVG Version: 6.00 Build 0)  -->
<!DOCTYPE svg PUBLIC "-//W3C//DTD SVG 1.1//EN" "http://www.w3.org/Graphics/SVG/1.1/DTD/svg11.dtd">
<svg version="1.1" id="Calque_1" xmlns="http://www.w3.org/2000/svg" xmlns:xlink="http://www.w3.org/1999/xlink" x="0px" y="0px"
	 viewBox="0 0 512 512" enable-background="new 0 0 512 512" xml:space="preserve">
<g>
	<path fill="#1A7BD7" d="M293.8,380.1h-23.4V165.7H369L327.2,232c-2.1,3.4-1.1,7.8,2.2,9.9c1.2,0.8,2.5,1.1,3.8,1.1
		c2.4,0,4.7-1.2,6.1-3.4l36.2-57.5l36.2,57.5c2.1,3.4,6.6,4.4,9.9,2.2c3.4-2.1,4.4-6.6,2.3-9.9l-41.8-66.3h0.5
		c6.2,0,11.1-5,11.1-11.1s-5-11.1-11.1-11.1h-82c-4.6-6.7-11.5-11.8-19.5-14.3c-1.1-13-12-23.1-25.3-23.1s-24.1,10.2-25.3,23.1
		c-8,2.4-14.8,7.5-19.5,14.3h-82c-6.2,0-11.1,5-11.1,11.1s5,11.1,11.1,11.1h0.5L88,231.9c-2.1,3.4-1.1,7.8,2.3,9.9
		c1.2,0.8,2.5,1.1,3.8,1.1c2.4,0,4.7-1.2,6.1-3.4l36.2-57.5l36.2,57.5c2.1,3.4,6.6,4.4,9.9,2.2c3.4-2.1,4.4-6.6,2.2-9.9L143,165.7
		h98.6v214.4h-23.4c-14,0-25.4,11.4-25.4,25.4h126.3C319.1,391.4,307.8,380.1,293.8,380.1L293.8,380.1z"/>
	<g>
		<path fill="#1A7BD7" d="M189.3,250.6H83.5c-2.1,0-3.8,1.7-3.8,3.8c0,31.3,25.5,56.8,56.8,56.8s56.8-25.5,56.8-56.8
			C193.2,252.3,191.4,250.6,189.3,250.6L189.3,250.6z"/>
		<path fill="#1A7BD7" d="M428.5,250.6H322.7c-2.1,0-3.8,1.7-3.8,3.8c0,31.3,25.5,56.8,56.8,56.8s56.8-25.5,56.8-56.8
			C432.4,252.3,430.6,250.6,428.5,250.6L428.5,250.6z"/>
	</g>
</g>
</svg>
