<?xml version="1.0" encoding="utf-8"?>
<!-- Generator: Adobe Illustrator 18.0.0, SVG Export Plug-In . SVG Version: 6.00 Build 0)  -->
<!DOCTYPE svg PUBLIC "-//W3C//DTD SVG 1.1//EN" "http://www.w3.org/Graphics/SVG/1.1/DTD/svg11.dtd">
<svg version="1.1" id="Calque_1" xmlns="http://www.w3.org/2000/svg" xmlns:xlink="http://www.w3.org/1999/xlink" x="0px" y="0px"
	 viewBox="0 0 512 512" enable-background="new 0 0 512 512" xml:space="preserve">
<g>
	<path fill="#488FCC" d="M253.5,11C117.4,11,7,121.4,7,257.5c0,136.2,110.4,246.5,246.5,246.5s246.5-110.4,246.5-246.5
		C500.1,121.4,389.7,11,253.5,11L253.5,11z M253.5,452.2c-107.3,0-194.7-87.3-194.7-194.7c0-107.3,87.3-194.7,194.7-194.7
		c107.3,0,194.7,87.3,194.7,194.7C448.2,364.9,360.9,452.2,253.5,452.2L253.5,452.2z M253.5,452.2"/>
	<path fill="#488FCC" d="M409.7,166.1c-1.3-2.2-3.9-3.3-6.4-2.6l-175.2,47.8c-1,0.3-1.8,0.8-2.6,1.5L98.2,342.1
		c-1.8,1.8-2.2,4.6-0.9,6.8c1.3,2.2,3.9,3.3,6.4,2.6l175.2-47.8c0.5-0.1,0.9-0.3,1.4-0.6c0.4-0.3,0.8-0.6,1.2-0.9l127.3-129.4
		C410.6,171.1,411,168.3,409.7,166.1L409.7,166.1z M145.5,320.8l85.3-86.7l32.1,54.7L145.5,320.8z M145.5,320.8"/>
</g>
</svg>
