<?xml version="1.0" encoding="utf-8"?>
<!-- Generator: Adobe Illustrator 18.0.0, SVG Export Plug-In . SVG Version: 6.00 Build 0)  -->
<!DOCTYPE svg PUBLIC "-//W3C//DTD SVG 1.1//EN" "http://www.w3.org/Graphics/SVG/1.1/DTD/svg11.dtd">
<svg version="1.1" id="Calque_1" xmlns="http://www.w3.org/2000/svg" xmlns:xlink="http://www.w3.org/1999/xlink" x="0px" y="0px"
	 viewBox="0 0 512 512" enable-background="new 0 0 512 512" xml:space="preserve">
<path fill="#03A9F4" d="M303.4,292c-0.7,0.2-1.4,0.4-2.1,0.6c8.9,19.3,17.8,38.6,26.8,57.8c-1.9-0.6-4.1,0.3-6.7,1.5
	c-3,1.4-5.9,4.6-7.7,8.1c-1.8,3.4-2.6,7.2-1.2,10.2c0.9,1.9,2.5,3.3,4.5,4c1.9,0.7,4.3,0.7,6.4-0.2c3.4-1.3,6.4-4.6,8.1-8.4
	c1.7-3.9,2.3-8.2,0.7-11.5C322.6,333.5,313,312.7,303.4,292z M183.4,355.1c-1.8,0.1-3.2,1.6-3.2,3.4s1.4,3.3,3.2,3.2
	c1.8-0.1,3.2-1.6,3.2-3.5C186.6,356.4,185.2,355,183.4,355.1z M212.5,223.3L192,187.1l-2.2-3.9l-1.2-2.1l-2.2-3.9l-1.2-2.1l-2.2-3.9
	l-1.2-2.1V169l-2.1-3.8L145,196l2,3.5l1.4,2.5l2.2,3.9l1.2,2.1l2.2,3.9l1.2,2.1l2.2,3.9l18,31.8c-1.8-0.4-3.9,0.3-6.2,1.6
	c-2.6,1.5-5,4.5-6.3,7.9c-1.4,3.3-1.7,7-0.2,9.7c1,1.7,2.5,2.7,4.3,3c1.7,0.3,3.7-0.1,5.6-1.1c2.9-1.6,5.4-4.6,6.8-8
	c1.4-3.4,1.8-7,0.1-10l-20.6-36.3l31.5-28.1l17.9,31.7c-1.8-0.4-3.9,0.3-6.2,1.6c-2.6,1.5-5,4.5-6.3,7.9c-1.4,3.3-1.7,7-0.2,9.7
	c1,1.7,2.5,2.7,4.3,3c1.7,0.3,3.7-0.1,5.6-1.1c2.9-1.6,5.4-4.6,6.8-8C213.8,229.9,214.1,226.2,212.5,223.3z M150,200.7l-1.2-2.1
	l31.5-28.1l1.2,2.1L150,200.7z M153.3,206.6l-1.2-2.1l31.5-28.1l1.2,2.1L153.3,206.6z M156.7,212.6l-1.2-2.1l31.5-28l1.2,2.1
	L156.7,212.6z M254.8,276.4c-1-3.9-2-7.9-3-11.8c-0.4-1.7-0.9-3.4-1.3-5.2c-0.3-1.1-1.3-3.3-0.5-4.1c1.6-1.8,3.1-3.8,4.5-5.8
	c2.9-4.1,5.4-8.6,7.4-13.2c3.8-8.9,5.8-18.9,4.9-28.6c-0.8-7.8-3.4-15.6-6.5-22.7c-1.4-3-2.9-6.1-4.9-8.8c-0.9-1.2-2.5-3.5-4.3-3.2
	c-2.8,0.5-5.3,3.4-6.8,5.5c-2.2,3-3.6,6.5-4.7,10.1c-2.2,7.1-3.4,14.7-3.2,22.2c0.1,5.6,1,11.2,2.1,16.6c0.6,3.1,1.4,6.2,2.3,9.3
	c0.2,0.7,0.4,1.4,0.6,2.1c0.3,0.9,0.1,0.9-0.5,1.5c-0.7,0.8-1.4,1.6-2.1,2.5c-6.1,7.2-12.2,14.4-17.1,22.4
	c-4.8,7.9-8.5,16.6-8.9,25.9c-0.4,9.2,2.2,18.5,6.9,26.4c9.6,16.1,28.2,25.3,46.4,18.4c1.1,4.1,2.2,8.2,3.3,12.3c1.1,4,2.4,8,3,12.1
	c0.8,5.4,0.5,11.2-2.5,15.9c-2.9,4.5-7.8,7-12.9,7.9c-3.6,0.6-10.6-0.8-11.3-5.2c3.6,0.9,7.8-1.6,9.8-4.4c3.4-4.6,2.2-11.4-1.6-15.4
	c-6.7-7.2-17.3-3.2-19.7,5.7c-2.5,8.9,3.8,17.6,11.6,21.3c7.6,3.6,17,2.4,23.5-3c6.6-5.4,8.3-13.9,7.3-22c-0.7-6-2.8-12-4.3-17.8
	c-0.8-3.1-1.6-6.3-2.4-9.4c1.9-1.2,3.7-2.4,5.4-3.9c6.8-5.7,11.4-13.7,12-22.6c0.6-8.6-2.3-17.6-8.3-23.9
	C272.6,277,263.6,274.5,254.8,276.4z M244.2,202.7c1.4-4,3.5-8.4,7.4-10.5c5-2.6,9.2,2.3,9.6,7.1c1.3,13.9-7.1,27.3-16.6,36.8
	C241.3,225.1,240.5,213.7,244.2,202.7z M264.3,332.2c-1.5,0.6-3.1,1-4.6,1.4c-17.3,3.5-35.1-8.3-37.6-25.9
	c-2.8-19.6,11.6-35.8,24.3-48.7c1,4,2,7.9,3,11.9c0.4,1.7,0.9,3.5,1.3,5.2c0.2,0.8,0.7,1.3-0.1,1.7c-0.5,0.2-1,0.5-1.4,0.7
	c-1.9,1.1-3.7,2.5-5.3,4.1c-3.4,3.4-6,7.7-7.3,12.3c-2.6,9.1,0.8,19.1,8,25.1c1.8,1.5,3.8,2.7,6,3.6c0.9,0.4,2.1,1,3,0.5
	c0.8-0.5,0.9-1.5,0.2-2.1c-0.9-0.7-2.3-1-3.3-1.6c-0.9-0.5-1.8-1.1-2.6-1.8c-1.6-1.3-2.9-3-3.8-4.8c-3.9-8.6,1.9-19.3,10.4-22.5
	c2,7.9,4,15.8,6,23.8c1,4,2,7.9,3,11.9c0.3,1,0.5,2,0.8,3C264.6,330.7,265.4,331.8,264.3,332.2z M268.7,330.4
	c-3.4-13.3-6.9-26.6-10.3-39.9c9.4-0.6,17.5,5.5,20.1,14.4C281.4,314.4,277,325,268.7,330.4z M360.2,214.5c-3-4-7.4-8.5-11.3-13.5
	c-5.1-6.5-5.2-12.9-5.8-18c-0.8,0-1.6,0-2.4,0v78.1c-1.8-1.7-4.7-2.1-8.2-2.2c-3.9-0.1-8.6,1.7-12.3,4.5c-3.7,2.7-6.4,6.4-6.4,10.4
	c0,2.5,1.1,4.8,2.9,6.5c1.7,1.7,4.3,2.9,7,3.2c4.3,0.4,9.1-1.1,12.8-4.1c3.8-3,6.4-7.2,6.4-11.8v-57.5c5.5,0.4,11.7,4.7,15.4,9.7
	c3.3,4.3,5.2,9.9,5.4,15.1c0.4,9.3-4.3,18.3-6.6,23.8c0.5,0,1-0.1,1.6-0.1c3.3-5.9,8.1-16.2,8.1-26.3
	C367,226.1,364.2,219.8,360.2,214.5z M256,106c-82.8,0-150,67.2-150,150s67.2,150,150,150s150-67.2,150-150S338.8,106,256,106z
	 M355.2,355.2c-25.4,25.4-60.4,41.1-99.2,41.1c-32.7,0-62.8-11.2-86.6-29.9c1.7-0.5,3.3-1.3,4.7-2.4c2.7-2,4.5-5,4.5-8.1
	c0-10.5,0-21,0-31.6c1.9,1.3,4.5,3.3,7.2,5.2c2.7,1.8,4.9,3.6,6.2,5.2c2.3,2.8,2.4,4.8,2.6,8.4c0.1,3.3-1.5,8.6-2.9,10.9
	c0.4,0,0.7-0.1,1.1-0.1c2-3.5,3.3-7.5,3.3-12.3c0-3-0.3-5-1.4-7.1c0.4-1.6,0.6-3.3,0.6-5.1c0-1.8-0.3-3.6-0.9-5.3
	c0.6-2.1,0.9-4.3,0.9-6.5c0-4.4-2-8.9-4.7-12.6c-2.1-2.8-5.1-6-8.5-9.1c-2.9-2.8-3.3-6.4-3.4-8.9c-0.6,0-1.1,0-1.7,0v64.5
	c-1.2-1.2-3.4-1.5-5.7-1.6c-2.7-0.1-6,1.2-8.5,3.1c-1.7,1.2-3.1,2.7-3.8,4.4c-0.7-0.7-1.4-1.3-2-2c-25.4-25.4-41.1-60.4-41.1-99.2
	c0-38.7,15.7-73.8,41.1-99.2s60.4-41.1,99.2-41.1c17.7,0,34.7,3.3,50.3,9.3c-2.1,0.9-4.1,2.1-6,3.7c-3.7,3.2-6.3,7.6-6.3,12v81.2
	c0.8,0.1,1.6,0.2,2.4,0.3c0.2-1.1,0.8-5.9,5-9.4c4.8-4,8.7-7.4,11.7-11.4c5.6-7.3,7.4-16.4,7.4-22.7c0-2.8-0.4-4.9-1.1-6.9
	c1.5-3,2.1-6.2,2.1-9.9c0-6.8-1.9-12.7-4.3-16.7c-0.4,0.3-0.9,0.7-1.3,1c1.2,1.3,3.7,9,3.5,13.7c-0.2,5.2-0.6,8.2-3.9,12.4
	c-3.8,4.7-13.6,9.8-19,13.4V147c1.7,1.5,4.6,1.8,8,1.7c4-0.1,8.7-2,12.3-4.9c3.7-2.8,6.4-6.4,6.4-10.4c0-0.1,0-0.3,0-0.4
	c11.8,6.5,22.6,14.6,32.1,24c25.4,25.4,41.1,60.4,41.1,99.2C396.2,294.7,380.5,329.8,355.2,355.2z M189.3,320.5
	c2.3,3,4.1,5.8,4.2,9.4c0,0.9,0,1.8,0,2.7c-0.2-0.4-0.4-0.8-0.8-1.2c-2.6-3-6.4-6.8-9.5-9.6c-2.5-2.3-4.4-6.7-4.6-9.8
	C182.4,314.3,186.7,317.2,189.3,320.5z M178.6,299.7c3.8,2.3,8,5.4,10.7,8.8c2.3,3,4.1,5.9,4.2,9.5c0.1,1,0,2.4,0,3.7
	c-0.7-1.8-1.8-3.4-2.9-4.9c-2.1-2.8-5.1-5.9-8.5-8.9C179.1,305.1,178.8,301.5,178.6,299.7z M296.4,206.7c0.2-7,4.7-13.9,8.9-17.8
	c4.8-4.2,7.1-6.6,9.9-10.2c1.3-1.6,2.4-3.4,3.2-5.1c0.1,1.3,0.1,3.1,0,4.6c-0.1,2.6-1,7-2.3,10.1
	C311.7,198.1,305.1,202.4,296.4,206.7z"/>
<rect y="434.5" fill="none" width="512" height="77.5"/>
<text transform="matrix(1 0 0 1 153.0513 471.5)" fill="#03A9F4" font-family="'Lato-Semibold'" font-size="50">Accordés</text>
</svg>
