<?xml version="1.0" encoding="utf-8"?>
<!-- Generator: Adobe Illustrator 18.0.0, SVG Export Plug-In . SVG Version: 6.00 Build 0)  -->
<!DOCTYPE svg PUBLIC "-//W3C//DTD SVG 1.1//EN" "http://www.w3.org/Graphics/SVG/1.1/DTD/svg11.dtd">
<svg version="1.1" id="Calque_1" xmlns="http://www.w3.org/2000/svg" xmlns:xlink="http://www.w3.org/1999/xlink" x="0px" y="0px"
	 viewBox="0 0 512 512" enable-background="new 0 0 512 512" xml:space="preserve">
<g>
	<path fill="#488FCC" d="M201.3,150.7l41,41c3.5,3.5,9.3,3.5,12.8,0L350.8,96c19.1-19.1,50.2-19.1,69.2,0
		c19.1,19.1,19.1,50.1,5.9,72.6l-95.7,95.7c-9.4,0.2-9.4,5.9-5.9,9.5l41,41c3.5,3.5,9.3,3.5,12.8,0l95.7-95.7
		c48.8-48.8,48.8-128.2,0-176.9S345.8-6.6,297,42.2l-95.7,95.7C197.7,141.4,197.7,147.2,201.3,150.7L201.3,150.7z M220.5,144.3
		l23.5-23.5l28.2,28.2l-23.5,23.5L220.5,144.3z M343.5,267.4l23.5-23.5l28.2,28.2l-23.5,23.5L343.5,267.4z M461.1,55
		c41.7,41.7,41.7,109.6,0,151.3l-53,53l-28.2-28.2l53-53c26.2-26.2,26.2-68.7,0-94.9C406.7,57,364.2,57,338,83.2l-53,53L256.8,108
		l53-53C351.5,13.3,419.4,13.3,461.1,55L461.1,55z M461.1,55"/>
</g>
<g>
	<path fill="#488FCC" d="M314.8,363.8l-41-41c-3.5-3.5-9.3-3.5-12.8,0l-95.7,95.7c-19.1,19.1-50.2,19.1-69.2,0s-19.1-50.1,0-69.2
		l95.7-95.7c3.5-3.5,3.5-9.3,0-12.8l-41-41c-3.5-3.5-9.3-3.5-12.8,0l-95.7,95.7c-48.8,48.8-48.8,128.2,0,176.9s128.1,48.8,176.9,0
		l95.7-95.7C318.4,373.1,318.4,367.3,314.8,363.8L314.8,363.8z M295.6,370.2l-23.5,23.5l-28.2-28.2l23.5-23.5L295.6,370.2z
		 M172.5,247.1l-23.5,23.5l-28.2-28.2l23.5-23.5L172.5,247.1z M55,459.5C13.3,417.8,13.3,350,55,308.2l53-53l28.2,28.2l-53,53
		c-26.2,26.2-26.2,68.7,0,94.9c26.2,26.2,68.7,26.1,94.9,0l53-53l28.2,28.2l-53,53C164.6,501.2,96.7,501.2,55,459.5L55,459.5z
		 M55,459.5"/>
</g>
<path fill="#488FCC" d="M303.5,331.6c1.1-1.1,2.1-1.2,3.9-1.3c1.7-0.1,4.3,0,6.2-2l0.4-0.4c1.6-1.9,1.5-4.2,1.6-5.9
	c0.1-1.5,0.2-2.5,0.9-3.5c0.1-0.1,0.2-0.3,0.4-0.4c1.1-1.1,2.1-1.2,3.9-1.3c0.4,0,0.9,0,1.5,0c1.5-0.1,3.3-0.4,4.8-1.9l0.4-0.4
	c1.6-1.9,1.5-4.2,1.6-5.9c0.1-1.5,0.2-2.5,0.9-3.5c0.1-0.1,0.2-0.3,0.4-0.4c0.2-0.2,0.4-0.5,0.5-0.7c0-0.1,0.1-0.3,0.1-0.4
	c0.2-0.7,0-1.5-0.6-2.1c-0.2-0.2-0.5-0.4-0.7-0.5c-0.3-0.1-0.6-0.2-0.9-0.2c-0.2,0-0.3,0-0.4,0c-0.1,0-0.3,0-0.4,0.1
	c-0.2,0.1-0.3,0.1-0.4,0.2c-0.2,0.1-0.2,0.2-0.4,0.3l-0.4,0.4c-1.8,2.1-2.1,4.7-2.2,6.5c-0.1,1.7-0.1,2.6-0.5,3.1
	c-0.1,0.1-0.1,0.2-0.1,0.2c-0.1,0.1-0.3,0.2-0.4,0.3c-0.4,0.1-0.9,0.2-1.6,0.2c-0.4,0-0.8,0.1-1.3,0.1c-1.9,0.1-4.7,0.4-6.9,2.6
	l-0.4,0.4c-1.8,2.1-2.1,4.7-2.2,6.5c-0.1,1.7-0.1,2.6-0.5,3.1c-0.1,0.1-0.1,0.2-0.1,0.2c-0.1,0.1-0.3,0.2-0.4,0.3
	c-0.2,0.1-0.4,0.1-0.7,0.2c-0.5,0.1-1.2,0.1-2.2,0.2c-1.9,0.1-4.7,0.4-6.9,2.6l-0.2,0.2c-0.8,0.9-0.7,2.4,0.2,3.2
	C301.2,332.6,302.7,332.5,303.5,331.6L303.5,331.6z M334.8,309.4l-0.4,0.4c-1.8,2.1-2.1,4.7-2.2,6.5c-0.1,1.7-0.1,2.6-0.5,3.1
	c-0.1,0.1-0.1,0.2-0.1,0.2c-0.2,0.2-0.4,0.3-0.8,0.4c-0.6,0.2-1.3,0.2-2.5,0.2c-1.9,0.1-4.7,0.4-6.9,2.6l-0.4,0.4
	c-1.8,2.1-2.1,4.7-2.2,6.5c-0.1,1.7-0.1,2.6-0.5,3.1c-0.1,0.1-0.1,0.2-0.1,0.2c-0.2,0.2-0.4,0.3-0.8,0.4c-0.1,0-0.2,0.1-0.4,0.1
	c-0.5,0.1-1.2,0.1-2.2,0.2c-1.9,0.1-4.7,0.4-6.9,2.6c-0.8,0.8-0.9,2.4,0,3.2s2.4,0.8,3.2,0c1.1-1.1,2.2-1.1,3.9-1.2
	c1.7-0.1,4.3,0,6.2-2l0.4-0.4c1.6-1.9,1.5-4.2,1.6-5.9c0-1.1,0.1-1.9,0.4-2.6c0.1-0.2,0.1-0.3,0.2-0.4c0.1-0.2,0.2-0.3,0.3-0.4
	c0.1-0.1,0.2-0.3,0.4-0.4c1.1-1.1,2.2-1.1,3.9-1.2c0.4,0,0.9,0,1.5,0c1.5-0.1,3.3-0.4,4.8-1.9l0.4-0.4c1.6-1.9,1.5-4.2,1.6-5.9
	c0-1.1,0.1-1.9,0.4-2.6c0.1-0.2,0.1-0.3,0.2-0.4c0.1-0.2,0.2-0.3,0.3-0.4c0.1-0.1,0.2-0.3,0.4-0.4c0.8-0.8,0.9-2.4,0-3.2
	C337.3,308.6,335.7,308.6,334.8,309.4L334.8,309.4z M334.8,309.4"/>
<path fill="#488FCC" d="M177.7,207.5c1.1-1.1,2.1-1.2,3.9-1.3c1.7-0.1,4.3,0,6.2-2l0.4-0.4c1.6-1.9,1.5-4.2,1.6-5.9
	c0.1-1.5,0.2-2.5,0.9-3.5c0.1-0.1,0.2-0.3,0.4-0.4c1.1-1.1,2.1-1.2,3.9-1.3c0.4,0,0.9,0,1.5,0c1.5-0.1,3.3-0.4,4.8-1.9l0.4-0.4
	c1.6-1.9,1.5-4.2,1.6-5.9c0.1-1.5,0.2-2.5,0.9-3.5c0.1-0.1,0.2-0.3,0.4-0.4c0.2-0.2,0.4-0.5,0.5-0.7c0-0.1,0.1-0.3,0.1-0.4
	c0.2-0.7,0-1.5-0.6-2.1c-0.2-0.2-0.5-0.4-0.7-0.5c-0.3-0.1-0.6-0.2-0.9-0.2c-0.2,0-0.3,0-0.4,0c-0.1,0-0.3,0-0.4,0.1
	c-0.2,0.1-0.3,0.1-0.4,0.2c-0.2,0.1-0.2,0.2-0.4,0.3l-0.4,0.4c-1.8,2.1-2.1,4.7-2.2,6.5c-0.1,1.7-0.1,2.6-0.5,3.1
	c-0.1,0.1-0.1,0.2-0.1,0.2c-0.1,0.1-0.3,0.2-0.4,0.3c-0.4,0.1-0.9,0.2-1.6,0.2c-0.4,0-0.8,0.1-1.3,0.1c-1.9,0.1-4.7,0.4-6.9,2.6
	l-0.4,0.4c-1.8,2.1-2.1,4.7-2.2,6.5c-0.1,1.7-0.1,2.6-0.5,3.1c-0.1,0.1-0.1,0.2-0.1,0.2c-0.1,0.1-0.3,0.2-0.4,0.3
	c-0.2,0.1-0.4,0.1-0.7,0.2c-0.5,0.1-1.2,0.1-2.2,0.2c-1.9,0.1-4.7,0.4-6.9,2.6l-0.2,0.2c-0.8,0.9-0.7,2.4,0.2,3.2
	C175.3,208.5,176.9,208.4,177.7,207.5L177.7,207.5z M209,185.4l-0.4,0.4c-1.8,2.1-2.1,4.7-2.2,6.5c-0.1,1.7-0.1,2.6-0.5,3.1
	c-0.1,0.1-0.1,0.2-0.1,0.2c-0.2,0.2-0.4,0.3-0.8,0.4c-0.6,0.2-1.3,0.2-2.5,0.2c-1.9,0.1-4.7,0.4-6.9,2.6l-0.4,0.4
	c-1.8,2.1-2.1,4.7-2.2,6.5c-0.1,1.7-0.1,2.6-0.5,3.1c-0.1,0.1-0.1,0.2-0.1,0.2c-0.2,0.2-0.4,0.3-0.8,0.4c-0.1,0-0.2,0.1-0.4,0.1
	c-0.5,0.1-1.2,0.1-2.2,0.2c-1.9,0.1-4.7,0.4-6.9,2.6c-0.8,0.8-0.9,2.4,0,3.2c0.9,0.9,2.4,0.8,3.2,0c1.1-1.1,2.2-1.1,3.9-1.2
	c1.7-0.1,4.3,0,6.2-2l0.4-0.4c1.6-1.9,1.5-4.2,1.6-5.9c0-1.1,0.1-1.9,0.4-2.6c0.1-0.2,0.1-0.3,0.2-0.4c0.1-0.2,0.2-0.3,0.3-0.4
	c0.1-0.1,0.2-0.3,0.4-0.4c1.1-1.1,2.2-1.1,3.9-1.2c0.4,0,0.9,0,1.5,0c1.5-0.1,3.3-0.4,4.8-1.9l0.4-0.4c1.6-1.9,1.5-4.2,1.6-5.9
	c0-1.1,0.1-1.9,0.4-2.6c0.1-0.2,0.1-0.3,0.2-0.4c0.1-0.2,0.2-0.3,0.3-0.4c0.1-0.1,0.2-0.3,0.4-0.4c0.8-0.8,0.9-2.4,0-3.2
	C211.4,184.5,209.8,184.5,209,185.4L209,185.4z M209,185.4"/>
</svg>
