<?xml version="1.0" encoding="utf-8"?>
<!-- Generator: Adobe Illustrator 18.0.0, SVG Export Plug-In . SVG Version: 6.00 Build 0)  -->
<!DOCTYPE svg PUBLIC "-//W3C//DTD SVG 1.1//EN" "http://www.w3.org/Graphics/SVG/1.1/DTD/svg11.dtd">
<svg version="1.1" id="Calque_1" xmlns="http://www.w3.org/2000/svg" xmlns:xlink="http://www.w3.org/1999/xlink" x="0px" y="0px"
	 viewBox="0 0 512 512" enable-background="new 0 0 512 512" xml:space="preserve">
<rect y="434.5" fill="none" width="512" height="77.5"/>
<text transform="matrix(1 0 0 1 87.228 471.5)" fill="#F58D77" font-family="'Lato-Semibold'" font-size="50">Twins parfaits !</text>
<g>
	<circle fill="#F69173" cx="256" cy="256" r="150"/>
	
		<linearGradient id="SVGID_1_" gradientUnits="userSpaceOnUse" x1="264.6313" y1="229.13" x2="434.8953" y2="492.6214" gradientTransform="matrix(0.8 0 0 0.8 0 0)">
		<stop  offset="0" style="stop-color:#FFFFFF"/>
		<stop  offset="0.2117" style="stop-color:#FFFEFD"/>
		<stop  offset="0.2952" style="stop-color:#FEF9F6"/>
		<stop  offset="0.3561" style="stop-color:#FDF1EA"/>
		<stop  offset="0.4061" style="stop-color:#FBE6D9"/>
		<stop  offset="0.4493" style="stop-color:#F8D7C2"/>
		<stop  offset="0.4878" style="stop-color:#F5C5A6"/>
		<stop  offset="0.5229" style="stop-color:#F1AF85"/>
		<stop  offset="0.5553" style="stop-color:#ED965E"/>
		<stop  offset="0.5844" style="stop-color:#E87B34"/>
		<stop  offset="0.5942" style="stop-color:#E67024"/>
		<stop  offset="0.6762" style="stop-color:#F69173"/>
	</linearGradient>
	<path fill="url(#SVGID_1_)" d="M193.9,271.4c-9.9-32.7,10.7-44.3,31.4-38.9c1.1-0.1,3.9,24.6,17.6,52.8
		c11.3,24.3,21.5,30.6,28.9,27.4c11.9-4.7,10.5-24.8,8.2-35.7c-0.3-1.5,8.1-4.2,10,11c1.8,17-6.3,46.9-28.8,54.3
		C235.6,350.2,204.4,306,193.9,271.4z M257.6,211.3c-7.4,1.5-24.7-10.4-26-24.5c-1.4-14.6,11-26.9,24.8-29.7
		c14.3-2.9,27.1,4.3,29,18.8C286.7,189.9,265,209.8,257.6,211.3z"/>
	<path fill="#FFFFFF" d="M248.2,342.2c-22.9-8.6-23.2-19.4-28.3-27.1c-4.8-7.1,11.5,4.7,12.7,5.6c12.7,9.6-4.7-4.5,7-1.6
		c4.1,1,6.5-5.8,11.6-10.6c4.7-4.3,9.8-11.8,15.3-23.4c13.6-28.2,16.5-52.8,17.6-52.8c20.7-5.4,41.3,6.2,31.5,38.9
		C305.1,306,273.4,351.6,248.2,342.2z"/>
	<path fill="#FFFFFF" d="M252.7,307.1c0,0-24.9,27.4-54.5-23.5c0,0,19,49.1,49.2,58.3c7.4-5.3,10.2-8.9,10.2-8.9"/>
</g>
</svg>
