<?xml version="1.0" encoding="utf-8"?>
<!-- Generator: Adobe Illustrator 18.0.0, SVG Export Plug-In . SVG Version: 6.00 Build 0)  -->
<!DOCTYPE svg PUBLIC "-//W3C//DTD SVG 1.1//EN" "http://www.w3.org/Graphics/SVG/1.1/DTD/svg11.dtd">
<svg version="1.1" id="Calque_1" xmlns="http://www.w3.org/2000/svg" xmlns:xlink="http://www.w3.org/1999/xlink" x="0px" y="0px"
	 viewBox="0 0 512 512" enable-background="new 0 0 512 512" xml:space="preserve">
<g>
	<path fill="#488FCC" d="M238.4,503.7v-64.2c-8.3,3.8-17.4,5.8-26.6,5.8c-8.7,0-17.1-1.7-25-5.1c-7.6-3.3-14.5-7.9-20.4-13.9
		c-12.1-12.2-18.6-28.4-18.3-45.6c0.2-16.6,6.9-32.3,18.7-44.1c11.8-11.8,27.5-18.5,44.2-18.7c0.3,0,0.5,0,0.8,0
		c9.2,0,18.3,2,26.6,5.8l0.1-63.7h-76.2c1.8-3.2,4.6-7.2,7.7-11.8c6.1-8.8,10.6-19.1,10.4-30.7c-0.3-26.1-21.6-47.5-47.8-47.8
		c-0.2,0-0.5,0-0.7,0c-26.8,0-48.5,21.7-48.5,48.5c0,11.3,4.4,21.3,10.4,30c2.9,4.2,5.9,8.6,7.7,11.9H30.4
		c-11.2,0-20.3,9.1-20.3,20.3v203c0,11.2,9.1,20.3,20.3,20.3H238.4z M238.4,503.7"/>
	<path fill="#488FCC" d="M433.4,274.8c3.8,8.3,5.8,17.4,5.8,26.6c0,17-6.6,33-18.7,45.1c-12,12-28,18.7-45.1,18.7
		c-0.3,0-0.6,0-0.9,0c-16.6-0.2-32.3-6.9-44.1-18.7c-11.8-11.8-18.5-27.5-18.7-44.2c-0.1-9.5,1.9-18.9,5.8-27.4h-64l0,76.4
		c-2.7-1.5-7.7-4.9-12.3-8.1c-8.5-5.9-18.4-10.1-29.6-10.1c-0.2,0-0.4,0-0.6,0c-26.1,0.3-47.5,21.6-47.8,47.8
		c-0.1,9,2.2,17.4,6.3,24.6c8.3,14.7,24.1,24.6,42.2,24.6c11.1,0,20.8-4.5,29.6-10.1c5.4-3.4,9.6-6.5,12.3-8.1v91.5h223.3
		c11.2,0,20.3-9.1,20.3-20.3V274.8H433.4z M433.4,274.8"/>
	<path fill="#488FCC" d="M477,15.9H253.7v93.5c0,0,8.2-7.1,10.8-8.9c8.4-7,19.2-11.2,31-11.2c27,0,48.8,22.1,48.5,49.2
		c-0.4,26.1-21.7,47.4-47.8,47.8c-0.2,0-0.4,0-0.6,0c-11.8,0-22.6-4.2-31-11.2c-2.6-1.9-10.8-8.9-10.8-8.9v93.5h91.5
		c-0.7,1.4-4.8,7.6-8.1,12.4c-6.1,8.6-10.1,18.8-10,30.1c0.3,26.1,21.6,47.5,47.8,47.8c0.2,0,0.5,0,0.7,0c12.5,0,24-4.8,32.6-12.6
		c9.8-8.9,15.9-21.7,15.9-35.9c0-11.1-4.2-21-10-29.5c-3.7-5.4-6.5-9.6-8-12.2c0-0.1-0.1-0.1-0.1-0.1h91.5V36.3
		C497.4,25,488.2,15.9,477,15.9L477,15.9z M477,15.9"/>
</g>
</svg>
