<?xml version="1.0" encoding="utf-8"?>
<!-- Generator: Adobe Illustrator 18.0.0, SVG Export Plug-In . SVG Version: 6.00 Build 0)  -->
<!DOCTYPE svg PUBLIC "-//W3C//DTD SVG 1.1//EN" "http://www.w3.org/Graphics/SVG/1.1/DTD/svg11.dtd">
<svg version="1.1" id="Calque_1" xmlns="http://www.w3.org/2000/svg" xmlns:xlink="http://www.w3.org/1999/xlink" x="0px" y="0px"
	 viewBox="0 0 512 512" enable-background="new 0 0 512 512" xml:space="preserve">
<g>
	<g>
		<path fill="#03A9F4" d="M246.6,406v-39.5c-5.1,2.3-10.7,3.6-16.4,3.6c-5.4,0-10.5-1-15.4-3.1c-4.7-2-8.9-4.9-12.5-8.5
			c-7.4-7.5-11.4-17.5-11.3-28c0.1-10.2,4.2-19.9,11.5-27.1c7.3-7.3,16.9-11.4,27.2-11.5c0.2,0,0.3,0,0.5,0c5.7,0,11.3,1.2,16.4,3.6
			l0.1-39.2h-46.9c1.1-2,2.8-4.4,4.7-7.3c3.8-5.4,6.5-11.7,6.4-18.9c-0.2-16.1-13.3-29.2-29.4-29.4c-0.1,0-0.3,0-0.4,0
			c-16.5,0-29.8,13.3-29.8,29.8c0,6.9,2.7,13.1,6.4,18.5c1.8,2.6,3.6,5.3,4.7,7.3h-43.7c-6.9,0-12.5,5.6-12.5,12.5v124.8
			c0,6.9,5.6,12.5,12.5,12.5L246.6,406L246.6,406z"/>
		<path fill="#03A9F4" d="M366.5,265.2c2.3,5.1,3.6,10.7,3.6,16.4c0,10.5-4.1,20.3-11.5,27.7c-7.4,7.4-17.2,11.5-27.7,11.5
			c-0.2,0-0.4,0-0.6,0c-10.2-0.1-19.9-4.2-27.1-11.5c-7.3-7.3-11.4-16.9-11.5-27.2c-0.1-5.8,1.2-11.6,3.6-16.9h-39.4v47
			c-1.7-0.9-4.7-3-7.6-5c-5.2-3.6-11.3-6.2-18.2-6.2c-0.1,0-0.2,0-0.4,0c-16.1,0.2-29.2,13.3-29.4,29.4c-0.1,5.5,1.4,10.7,3.9,15.1
			c5.1,9,14.8,15.1,26,15.1c6.8,0,12.8-2.8,18.2-6.2c3.3-2.1,5.9-4,7.6-5v56.3h137.3c6.9,0,12.5-5.6,12.5-12.5v-128L366.5,265.2
			L366.5,265.2z"/>
		<path fill="#03A9F4" d="M393.3,106H256v57.5c0,0,5-4.4,6.6-5.5c5.2-4.3,11.8-6.9,19.1-6.9c16.6,0,30,13.6,29.8,30.3
			c-0.2,16.1-13.3,29.2-29.4,29.4c-0.1,0-0.2,0-0.4,0c-7.3,0-13.9-2.6-19.1-6.9c-1.6-1.2-6.6-5.5-6.6-5.5v57.5h56.3
			c-0.4,0.9-3,4.7-5,7.6c-3.8,5.3-6.2,11.6-6.2,18.5c0.2,16.1,13.3,29.2,29.4,29.4c0.1,0,0.3,0,0.4,0c7.7,0,14.8-3,20-7.7
			c6-5.5,9.8-13.3,9.8-22.1c0-6.8-2.6-12.9-6.2-18.1c-2.3-3.3-4-5.9-4.9-7.5c0-0.1-0.1-0.1-0.1-0.1h56.3V118.5
			C405.9,111.6,400.2,106,393.3,106L393.3,106z"/>
	</g>
</g>
<rect y="434.5" fill="none" width="512" height="77.5"/>
<text transform="matrix(1 0 0 1 61.5405 471.5)" fill="#03A9F4" font-family="'Lato-Semibold'" font-size="50">Complémentaires</text>
</svg>
