<?xml version="1.0" encoding="utf-8"?>
<!-- Generator: Adobe Illustrator 18.0.0, SVG Export Plug-In . SVG Version: 6.00 Build 0)  -->
<!DOCTYPE svg PUBLIC "-//W3C//DTD SVG 1.1//EN" "http://www.w3.org/Graphics/SVG/1.1/DTD/svg11.dtd">
<svg version="1.1" id="Calque_1" xmlns="http://www.w3.org/2000/svg" xmlns:xlink="http://www.w3.org/1999/xlink" x="0px" y="0px"
	 viewBox="0 0 512 512" enable-background="new 0 0 512 512" xml:space="preserve">
<g>
	<g>
		<path fill="#1A7BD7" d="M317.9,119.4c-19.6-8.9-40.4-13.4-61.8-13.4c-58.8,0-112.4,34.6-136.7,88.1
			c-34.1,75.3-0.6,164.4,74.7,198.5c19.6,8.9,40.4,13.4,61.8,13.4c58.8,0,112.4-34.6,136.7-88.1
			C426.8,242.5,393.2,153.5,317.9,119.4L317.9,119.4z M241.6,161.8c12.7,0,23.1,10.4,23.1,23.1c0,12.7-10.4,23.1-23.1,23.1
			s-23.1-10.4-23.1-23.1C218.5,172.1,228.9,161.8,241.6,161.8L241.6,161.8z M313.3,351.5c-8.2,25.3-38.5,48.1-85.5,38.5
			c-9.7-2-19.2-5.1-28.4-9.3c-68.7-31.1-99.4-112.4-68.2-181.2c14.4-31.9,40.3-56.4,71.5-69.6c1.8-0.8,4.3-0.4,1.3,2
			c-12.9,9.9-17.5,18.8-20.7,33.2c-6.2,28.7,8.9,69.2,69.9,96.8C310.7,287.9,321.5,326.5,313.3,351.5L313.3,351.5z"/>
	</g>
	<path fill="#1A7BD7" d="M279.1,335.2c0,12.7-10.4,23.1-23.1,23.1c-12.7,0-23.1-10.4-23.1-23.1s10.4-23.1,23.1-23.1
		C268.8,312.1,279.1,322.4,279.1,335.2L279.1,335.2z"/>
</g>
<rect y="434.5" fill="none" width="512" height="77.5"/>
<text transform="matrix(1 0 0 1 133.8647 471.5)" fill="#1A7BD7" font-family="'Lato-Semibold'" font-size="50">Yin &amp; Yang</text>
</svg>
