<?xml version="1.0" encoding="utf-8"?>
<!-- Generator: Adobe Illustrator 18.0.0, SVG Export Plug-In . SVG Version: 6.00 Build 0)  -->
<!DOCTYPE svg PUBLIC "-//W3C//DTD SVG 1.1//EN" "http://www.w3.org/Graphics/SVG/1.1/DTD/svg11.dtd">
<svg version="1.1" id="Calque_1" xmlns="http://www.w3.org/2000/svg" xmlns:xlink="http://www.w3.org/1999/xlink" x="0px" y="0px"
	 viewBox="0 0 512 512" enable-background="new 0 0 512 512" xml:space="preserve">
<g>
	<path fill="#488FCC" d="M361.8,29.4C329,14.5,294.3,7,258.6,7C160.4,7,70.8,64.8,30.2,154.2c-57,125.8-1,274.6,124.8,331.6
		c32.8,14.8,67.5,22.4,103.2,22.4c98.2,0,187.8-57.8,228.3-147.2C543.7,235.1,487.7,86.4,361.8,29.4L361.8,29.4z M234.4,100.2
		c21.3,0,38.6,17.3,38.6,38.6c0,21.3-17.3,38.6-38.6,38.6c-21.3,0-38.6-17.3-38.6-38.6C195.8,117.4,213.1,100.2,234.4,100.2
		L234.4,100.2z M354.2,417.2c-13.7,42.3-64.3,80.4-142.8,64.3c-16.2-3.4-32-8.6-47.4-15.6C49.2,413.9-2,278.1,50.1,163.2
		c24.1-53.3,67.4-94.2,119.5-116.3c3-1.3,7.2-0.7,2.2,3.3c-21.6,16.5-29.2,31.4-34.5,55.5c-10.4,48,14.8,115.6,116.7,161.8
		C349.8,310.9,367.9,375.3,354.2,417.2L354.2,417.2z M354.2,417.2"/>
</g>
<path fill="#488FCC" d="M320.3,389.9c0,21.3-17.3,38.6-38.6,38.6c-21.3,0-38.6-17.3-38.6-38.6c0-21.3,17.3-38.6,38.6-38.6
	C303.1,351.4,320.3,368.6,320.3,389.9L320.3,389.9z M320.3,389.9"/>
</svg>
